<?xml version="1.0" encoding="UTF-8"?>
<svg width="1200pt" height="1200pt" version="1.1" viewBox="0 0 1200 1200" xmlns="http://www.w3.org/2000/svg">
 <g fill="white">
  <path d="m1164.7 378.53c0-2.293-0.88281-4.4102-2.6445-6.1758l-334.41-334.41c-1.5898-1.5898-3.8828-2.6484-6.1758-2.6484-2.293 0-4.5898 1.0586-6.1758 2.6484l-145.77 145.77c-2.8242 2.8242-3.3516 7.0586-1.5859 10.59 1.9414 3.3516 5.8242 5.1172 9.707 4.2344 16.059-3.707 32.648 1.0586 44.473 12.883 9 9 14.117 21.176 14.117 33.883-0.17578 12.707-5.1172 24.707-14.117 33.707-18.707 18.707-49.234 18.707-67.941 0-11.648-11.648-16.41-28.234-12.707-44.117 0.88281-3.8828-0.88281-7.7656-4.4102-9.707-3.3594-1.9453-7.5938-1.4141-10.418 1.4102l-145.59 145.59c-3.5312 3.5273-3.5312 9 0 12.527l145.59 145.77c2.8242 2.8242 7.0586 3.3516 10.414 1.4141 3.5312-1.7656 5.293-5.8242 4.4102-9.5312-3.707-16.234 1.2344-32.824 12.707-44.469 18.98-18.617 49.008-18.934 67.941 0 18.707 18.707 18.707 49.234 0.17578 67.941-11.648 11.648-28.234 16.41-44.469 12.883-3.8828-0.88281-7.7656 0.88281-9.707 4.2344-1.7695 3.5234-1.2383 7.7617 1.5859 10.582l145.59 145.59c1.5859 1.7656 3.8789 2.6484 6.1758 2.6484 2.293 0 4.5859-0.88281 6.1758-2.6484l130.06-129.71c1.9414 13.586 8.293 26.293 18.527 36.527 25.59 25.59 67.234 25.59 92.824 0 25.41-25.586 25.41-67.234-0.17578-92.648-10.234-10.234-22.941-16.59-36.531-18.527l129.71-129.88c1.7656-1.7617 2.6484-3.8789 2.6484-6.3516z"/>
  <path d="m589.06 685.77c13.766-2.1172 26.648-8.4688 36.883-18.527 25.41-25.766 25.234-67.41-0.35156-93-25.254-25.25-66.605-26.039-92.648 0-10.234 10.234-16.59 23.117-18.527 36.883l-129.88-130.06c-1.5898-1.5938-3.8828-2.4766-6.1797-2.4766-2.293 0-4.5898 0.88281-6.1758 2.4727l-129.88 129.88c-2.1172-13.59-8.4727-26.469-18.707-36.707-24.707-24.883-67.766-24.883-92.648 0-25.41 25.59-25.41 67.234 0 92.824 10.059 10.234 22.941 16.59 36.707 18.527l-129.71 129.71c-3.5273 3.5312-3.5273 9 0.003906 12.531l334.23 334.41c1.5859 1.5898 3.8828 2.4727 6.1758 2.4727 2.293 0 4.5898-0.88281 6.1758-2.4727l130.06-129.71c1.9414 13.586 8.293 26.293 18.527 36.531 24.707 24.883 67.941 24.883 92.648 0 25.465-25.465 25.871-66.781 0-92.648-10.059-10.234-22.941-16.59-36.707-18.531l129.71-129.88c3.5273-3.5312 3.5273-9 0-12.527z"/>
  <path d="m867.23 854.95c-3.4453-3.4453-9.0312-3.4453-12.477 0-3.4453 3.4453-3.4453 9.0312 0 12.477l54.52 54.527c3.4453 3.4453 9.0312 3.4453 12.477 0s3.4453-9.0312 0-12.477z"/>
  <path d="m993.44 824-81.297-14.457c-4.8164-0.79297-9.3828 2.3281-10.227 7.1328-0.85156 4.8086 2.3438 9.3906 7.1445 10.238 109.2 19.359 77.457 14.598 82.852 14.598 4.1953 0 7.918-3 8.6758-7.2734 0.84766-4.8086-2.3477-9.3945-7.1484-10.238z"/>
  <path d="m816.48 902.12c-4.8008 0.84375-7.9961 5.4297-7.1445 10.238l14.449 81.309c0.81641 4.6055 5.1758 7.9766 10.227 7.1328 4.8008-0.84375 7.9961-5.4297 7.1445-10.238l-14.449-81.309c-0.84375-4.7891-5.4453-7.875-10.227-7.1328z"/>
  <path d="m332.62 345.3c3.4453 3.4453 9.0312 3.4453 12.477 0 3.4453-3.4453 3.4453-9.0312 0-12.477l-54.52-54.527c-3.4453-3.4453-9.0312-3.4453-12.477 0-3.4453 3.4453-3.4453 9.0312 0 12.477z"/>
  <path d="m383.37 298.14c4.8008-0.84375 7.9961-5.4297 7.1445-10.238l-14.449-81.309c-0.84375-4.7891-5.4219-7.8945-10.227-7.1328-4.8008 0.84375-7.9961 5.4297-7.1445 10.238l14.449 81.309c0.81641 4.6016 5.1758 7.9727 10.227 7.1328z"/>
  <path d="m206.4 376.27 81.309 14.441c5.0977 0.83594 9.418-2.5625 10.227-7.1328 0.85156-4.8086-2.3438-9.3906-7.1445-10.238l-81.309-14.441c-4.9219-0.86328-9.375 2.3438-10.227 7.1328-0.85156 4.8125 2.3438 9.3945 7.1445 10.238z"/>
 </g>
</svg>
